# xmcd
#
# Track frame offsets:
#	150
#	15220
#	28332
#	42677
#	60092
#	76030
#	92795
#	108455
#	124932
#	141965
#	158207
#	175542
#	190142
#	206472
#
# Disc length: 2959 seconds
#
# Revision: 2
# Processed by: cddbd v1.4PL0 Copyright (c) Steve Scherf et al.
# Submitted via: audiograbber 1.82.00
#
DISCID=af0b8d0e
DTITLE=Various Artist - Hot Hits Country Vol.14
DYEAR=1994
DGENRE=Country
TTITLE0=Chris LeDoux - Wild And Wooly
TTITLE1=John Michael Montgomery - Be My Baby Tonight
TTITLE2=Sammy Kershaw - National Working Womam's Holiday
TTITLE3=Marty Stuart - Love And Luck
TTITLE4=Kathy Mattea - Walking Away A Winner
TTITLE5=Rodney Crowell - Big Heart
TTITLE6=Martina McBride - Independence Day
TTITLE7=Blackhawk - Every Once In A While
TTITLE8=AaronTippin - Whole Lotta Love On The Line
TTITLE9=Carlene Carter - Something Already Gone
TTITLE10=Faith Hill - But I Will
TTITLE11=Diamond Rio - Love A Little Stronger
TTITLE12=John Anderson - I Wish I Could Have Been There
TTITLE13=George Strait - The Man In Love With You
EXTD=
EXTT0=
EXTT1=
EXTT2=
EXTT3=
EXTT4=
EXTT5=
EXTT6=
EXTT7=
EXTT8=
EXTT9=
EXTT10=
EXTT11=
EXTT12=
EXTT13=
PLAYORDER=
